HIERARCHY
ROOT Hips
{
	OFFSET 0.000000 71.427986 0.000000
	CHANNELS 6 Xposition Yposition Zposition Xrotation Yrotation Zrotation
	JOINT Pelvis
	{
		OFFSET 0.000000 0.000000 0.000000
		CHANNELS 3 Xrotation Yrotation Zrotation
		JOINT LeftUpLeg
		{
			OFFSET 6.797100 -2.508499 -1.318700
			CHANNELS 3 Xrotation Yrotation Zrotation
			JOINT LeftLeg
			{
				OFFSET 0.069008 -29.241863 0.690200
				CHANNELS 3 Xrotation Yrotation Zrotation
				JOINT LeftFoot
				{
					OFFSET -0.069008 -29.568123 -0.266800
					CHANNELS 3 Xrotation Yrotation Zrotation
					JOINT LeftToeBase
					{
						OFFSET 3.145500 -8.631000 16.059900
						CHANNELS 3 Xrotation Yrotation Zrotation
						End Site
						{
							OFFSET 0.000000 18.501587 0.000000
						}
					}
				}
			}
			JOINT Left_ShortSleeve
			{
				OFFSET 0.265923 -10.480953 1.153800
				CHANNELS 3 Xrotation Yrotation Zrotation
				End Site
				{
					OFFSET 1.725763 19.823879 0.000000
				}
			}
		}
		JOINT RightUpLeg
		{
			OFFSET -6.797100 -2.508499 -1.318700
			CHANNELS 3 Xrotation Yrotation Zrotation
			JOINT RightLeg
			{
				OFFSET -0.082453 -29.241932 0.688000
				CHANNELS 3 Xrotation Yrotation Zrotation
				JOINT RightFoot
				{
					OFFSET 0.082453 -29.568058 -0.264600
					CHANNELS 3 Xrotation Yrotation Zrotation
					JOINT RightToeBase
					{
						OFFSET -3.115300 -8.682800 16.113400
						CHANNELS 3 Xrotation Yrotation Zrotation
						End Site
						{
							OFFSET 0.000000 18.567114 0.000000
						}
					}
				}
			}
			JOINT Right_ShortSleeve
			{
				OFFSET -0.265923 -10.480953 1.153800
				CHANNELS 3 Xrotation Yrotation Zrotation
				End Site
				{
					OFFSET -1.725766 19.823910 0.000000
				}
			}
		}
	}
	JOINT Spine
	{
		OFFSET 0.000000 13.368103 0.470500
		CHANNELS 3 Xrotation Yrotation Zrotation
		JOINT Spine1
		{
			OFFSET 0.147000 13.837402 0.538800
			CHANNELS 3 Xrotation Yrotation Zrotation
			JOINT Spine2
			{
				OFFSET 0.168000 16.242897 -1.435500
				CHANNELS 3 Xrotation Yrotation Zrotation
				JOINT Neck
				{
					OFFSET 0.217200 18.631500 -1.679100
					CHANNELS 3 Xrotation Yrotation Zrotation
					JOINT Head
					{
						OFFSET 0.000000 6.599396 1.385900
						CHANNELS 3 Xrotation Yrotation Zrotation
						JOINT Hat
						{
							OFFSET -0.532200 27.220596 -10.096100
							CHANNELS 3 Xrotation Yrotation Zrotation
							End Site
							{
								OFFSET 0.000000 22.029861 0.000000
							}
						}
						JOINT HairD
						{
							OFFSET -10.777400 17.437393 -1.325900
							CHANNELS 3 Xrotation Yrotation Zrotation
							JOINT HairD1
							{
								OFFSET -3.290299 -11.051193 1.062200
								CHANNELS 3 Xrotation Yrotation Zrotation
								End Site
								{
									OFFSET 0.000000 11.579437 0.000000
								}
							}
						}
						JOINT HairB
						{
							OFFSET -10.777400 17.437393 1.467900
							CHANNELS 3 Xrotation Yrotation Zrotation
							JOINT HairB1
							{
								OFFSET -1.561200 -12.956299 3.590200
								CHANNELS 3 Xrotation Yrotation Zrotation
								End Site
								{
									OFFSET 0.000000 13.534866 0.000000
								}
							}
						}
						JOINT HairA
						{
							OFFSET 9.713100 17.437393 1.467900
							CHANNELS 3 Xrotation Yrotation Zrotation
							JOINT HairA1
							{
								OFFSET 1.561200 -12.956299 3.590200
								CHANNELS 3 Xrotation Yrotation Zrotation
								End Site
								{
									OFFSET 0.000000 13.534866 0.000000
								}
							}
						}
						JOINT HairC
						{
							OFFSET 9.713100 17.437393 -1.325900
							CHANNELS 3 Xrotation Yrotation Zrotation
							JOINT HairC1
							{
								OFFSET 3.290300 -11.051193 1.062200
								CHANNELS 3 Xrotation Yrotation Zrotation
								End Site
								{
									OFFSET 0.000000 11.579437 0.000000
								}
							}
						}
					}
				}
				JOINT LeftShoulder
				{
					OFFSET 5.101800 15.108002 -2.763700
					CHANNELS 3 Xrotation Yrotation Zrotation
					JOINT LeftArm
					{
						OFFSET 9.825497 2.506317 -1.597400
						CHANNELS 3 Xrotation Yrotation Zrotation
						JOINT LeftForeArm
						{
							OFFSET 21.966244 0.000000 0.000000
							CHANNELS 3 Xrotation Yrotation Zrotation
							JOINT LeftHand
							{
								OFFSET 33.879036 0.000000 0.000000
								CHANNELS 3 Xrotation Yrotation Zrotation
								JOINT LeftHandThumb1
								{
									OFFSET 6.715286 -2.359680 3.363841
									CHANNELS 3 Xrotation Yrotation Zrotation
									JOINT LeftHandThumb2
									{
										OFFSET 2.507072 -1.447464 1.447461
										CHANNELS 3 Xrotation Yrotation Zrotation
										JOINT LeftHandThumb3
										{
											OFFSET 2.898338 -1.673355 1.673357
											CHANNELS 3 Xrotation Yrotation Zrotation
											End Site
											{
												OFFSET -0.295959 3.727692 -0.131651
											}
										}
									}
								}
								JOINT LeftHandIndex1
								{
									OFFSET 14.190811 -0.254547 3.840278
									CHANNELS 3 Xrotation Yrotation Zrotation
									JOINT LeftHandIndex2
									{
										OFFSET 3.551727 0.000000 -0.000000
										CHANNELS 3 Xrotation Yrotation Zrotation
										JOINT LeftHandIndex3
										{
											OFFSET 2.894196 0.000000 0.000000
											CHANNELS 3 Xrotation Yrotation Zrotation
											End Site
											{
												OFFSET -1.000603 2.690872 0.366626
											}
										}
									}
								}
								JOINT LeftHandMiddle1
								{
									OFFSET 13.776489 0.000000 0.000000
									CHANNELS 3 Xrotation Yrotation Zrotation
									JOINT LeftHandMiddle2
									{
										OFFSET 3.438232 0.000000 0.000000
										CHANNELS 3 Xrotation Yrotation Zrotation
										JOINT LeftHandMiddle3
										{
											OFFSET 3.691551 0.000000 0.000000
											CHANNELS 3 Xrotation Yrotation Zrotation
											End Site
											{
												OFFSET -1.082298 3.499527 0.457670
											}
										}
									}
								}
								JOINT LeftHandRing1
								{
									OFFSET 13.966164 -0.268127 -3.067488
									CHANNELS 3 Xrotation Yrotation Zrotation
									JOINT LeftHandRing2
									{
										OFFSET 3.162567 0.000000 0.000000
										CHANNELS 3 Xrotation Yrotation Zrotation
										JOINT LeftHandRing3
										{
											OFFSET 3.324348 0.000000 0.000000
											CHANNELS 3 Xrotation Yrotation Zrotation
											End Site
											{
												OFFSET -0.861900 3.184998 0.405154
											}
										}
									}
								}
								JOINT LeftHandPinky1
								{
									OFFSET 13.131393 -0.168503 -5.746925
									CHANNELS 3 Xrotation Yrotation Zrotation
									JOINT LeftHandPinky2
									{
										OFFSET 2.849182 0.000000 0.000000
										CHANNELS 3 Xrotation Yrotation Zrotation
										JOINT LeftHandPinky3
										{
											OFFSET 2.805038 0.000000 0.000000
											CHANNELS 3 Xrotation Yrotation Zrotation
											End Site
											{
												OFFSET -0.882500 2.642609 0.325652
											}
										}
									}
								}
							}
							JOINT Left_Sleeve
							{
								OFFSET 6.592125 -0.646545 0.805568
								CHANNELS 3 Xrotation Yrotation Zrotation
								End Site
								{
									OFFSET -0.000179 20.275787 -0.000000
								}
							}
						}
					}
				}
				JOINT RightShoulder
				{
					OFFSET -5.731700 15.108002 -2.763700
					CHANNELS 3 Xrotation Yrotation Zrotation
					JOINT RightArm
					{
						OFFSET -9.825497 2.506317 -1.597400
						CHANNELS 3 Xrotation Yrotation Zrotation
						JOINT RightForeArm
						{
							OFFSET -21.966242 0.000000 0.000000
							CHANNELS 3 Xrotation Yrotation Zrotation
							JOINT RightHand
							{
								OFFSET -33.879032 0.000000 0.000000
								CHANNELS 3 Xrotation Yrotation Zrotation
								JOINT RightHandThumb1
								{
									OFFSET -6.715286 -2.359680 3.363841
									CHANNELS 3 Xrotation Yrotation Zrotation
									JOINT RightHandThumb2
									{
										OFFSET -2.507072 -1.447464 1.447461
										CHANNELS 3 Xrotation Yrotation Zrotation
										JOINT RightHandThumb3
										{
											OFFSET -2.898338 -1.673355 1.673357
											CHANNELS 3 Xrotation Yrotation Zrotation
											End Site
											{
												OFFSET 0.295959 3.727692 -0.131651
											}
										}
									}
								}
								JOINT RightHandIndex1
								{
									OFFSET -14.190811 -0.254547 3.840278
									CHANNELS 3 Xrotation Yrotation Zrotation
									JOINT RightHandIndex2
									{
										OFFSET -3.551727 0.000000 -0.000000
										CHANNELS 3 Xrotation Yrotation Zrotation
										JOINT RightHandIndex3
										{
											OFFSET -2.894196 0.000000 0.000000
											CHANNELS 3 Xrotation Yrotation Zrotation
											End Site
											{
												OFFSET 1.000603 2.690872 0.366626
											}
										}
									}
								}
								JOINT RightHandMiddle1
								{
									OFFSET -13.776489 0.000000 0.000000
									CHANNELS 3 Xrotation Yrotation Zrotation
									JOINT RightHandMiddle2
									{
										OFFSET -3.438232 0.000000 0.000000
										CHANNELS 3 Xrotation Yrotation Zrotation
										JOINT RightHandMiddle3
										{
											OFFSET -3.691551 0.000000 0.000000
											CHANNELS 3 Xrotation Yrotation Zrotation
											End Site
											{
												OFFSET 1.082298 3.499527 0.457670
											}
										}
									}
								}
								JOINT RightHandRing1
								{
									OFFSET -13.966164 -0.268127 -3.067488
									CHANNELS 3 Xrotation Yrotation Zrotation
									JOINT RightHandRing2
									{
										OFFSET -3.162567 0.000000 0.000000
										CHANNELS 3 Xrotation Yrotation Zrotation
										JOINT RightHandRing3
										{
											OFFSET -3.324348 0.000000 0.000000
											CHANNELS 3 Xrotation Yrotation Zrotation
											End Site
											{
												OFFSET 0.861900 3.184998 0.405154
											}
										}
									}
								}
								JOINT RightHandPinky1
								{
									OFFSET -13.131393 -0.168503 -5.746925
									CHANNELS 3 Xrotation Yrotation Zrotation
									JOINT RightHandPinky2
									{
										OFFSET -2.849182 0.000000 0.000000
										CHANNELS 3 Xrotation Yrotation Zrotation
										JOINT RightHandPinky3
										{
											OFFSET -2.805038 0.000000 0.000000
											CHANNELS 3 Xrotation Yrotation Zrotation
											End Site
											{
												OFFSET 0.882500 2.642609 0.325652
											}
										}
									}
								}
							}
							JOINT Right_Sleeve
							{
								OFFSET -6.592125 -0.646545 0.805568
								CHANNELS 3 Xrotation Yrotation Zrotation
								End Site
								{
									OFFSET 0.000179 20.275787 -0.000000
								}
							}
						}
					}
				}
				JOINT Bind_Right_JacketString
				{
					OFFSET -3.534800 11.969597 7.200700
					CHANNELS 3 Xrotation Yrotation Zrotation
					JOINT Bind_Right_JacketString1
					{
						OFFSET -0.319900 -6.102600 2.794100
						CHANNELS 3 Xrotation Yrotation Zrotation
						End Site
						{
							OFFSET 0.000000 6.719452 0.000000
						}
					}
				}
				JOINT Bind_Left_JacketString
				{
					OFFSET 2.904800 11.969597 7.200700
					CHANNELS 3 Xrotation Yrotation Zrotation
					JOINT Bind_Left_JacketString1
					{
						OFFSET 0.364800 -5.904503 3.186800
						CHANNELS 3 Xrotation Yrotation Zrotation
						End Site
						{
							OFFSET 0.000000 6.719513 0.000000
						}
					}
				}
				JOINT HairE
				{
					OFFSET 5.915200 17.612701 -11.592200
					CHANNELS 3 Xrotation Yrotation Zrotation
					JOINT HairE1
					{
						OFFSET 0.289200 -7.171898 -1.284500
						CHANNELS 3 Xrotation Yrotation Zrotation
						End Site
						{
							OFFSET 0.000000 7.291756 0.000000
						}
					}
				}
				JOINT HairF
				{
					OFFSET -0.864800 17.612701 -11.592200
					CHANNELS 3 Xrotation Yrotation Zrotation
					JOINT HairF1
					{
						OFFSET 0.000000 -14.087097 -2.127501
						CHANNELS 3 Xrotation Yrotation Zrotation
						End Site
						{
							OFFSET 0.000000 14.246841 0.000000
						}
					}
				}
				JOINT HairG
				{
					OFFSET -8.087700 17.612701 -11.592200
					CHANNELS 3 Xrotation Yrotation Zrotation
					JOINT HairG1
					{
						OFFSET -0.293600 -6.081398 -0.910100
						CHANNELS 3 Xrotation Yrotation Zrotation
						End Site
						{
							OFFSET 0.000000 6.156120 0.000000
						}
					}
				}
			}
		}
	}
	JOINT Pouch
	{
		OFFSET 0.000000 4.394501 10.847300
		CHANNELS 3 Xrotation Yrotation Zrotation
		End Site
		{
			OFFSET 0.000000 21.880577 0.000000
		}
	}
	JOINT Bag
	{
		OFFSET -13.229000 4.813004 -0.593300
		CHANNELS 3 Xrotation Yrotation Zrotation
		End Site
		{
			OFFSET 0.000000 21.880577 0.000000
		}
	}
	JOINT OccupyGuyFacialAnim_Joint
	{
		OFFSET 1.000000 -70.206398 -1.655000
		CHANNELS 3 Xrotation Yrotation Zrotation
		End Site
		{
			OFFSET 0.000000 21.880577 0.000000
		}
	}
}
MOTION
Frames: 5
Frame Time: 0.033333
-0.078857 70.426689 1.367074 3.816402 -3.696747 -0.146553 -0.000000 0.000001 -0.000000 -8.431524 12.632424 9.381544 11.022978 4.848854 2.174542 -5.733316 0.859353 -9.531088 -0.000000 0.000000 -0.000000 0.000000 -0.000000 -0.000001 -7.606212 -8.946278 -7.944502 6.315718 1.528537 -2.874742 -2.574059 -0.656578 10.149500 0.000000 0.000000 -0.000000 -0.000000 0.000001 -0.000000 0.169907 0.314958 -0.023090 0.511368 0.555629 -0.149995 0.508119 0.557000 -0.156049 -12.568409 -1.447528 2.637434 10.197547 3.163033 -2.584844 0.000000 -0.000000 0.000000 0.000000 -0.000000 0.000000 0.000000 -0.000000 0.000000 0.000000 -0.000000 0.000000 -0.000000 -0.000000 0.000000 0.000000 -0.000000 0.000000 -0.000000 -0.000000 0.000000 0.000000 -0.000000 0.000000 0.000000 -0.000000 0.000000 1.604993 -11.385831 -9.553344 4.329734 -15.662804 -64.423061 -0.000004 -12.874961 0.000012 1.693017 -1.937941 -8.457193 0.699764 -6.020124 19.223948 19.074651 26.512441 -1.026339 0.000004 0.000002 0.000002 0.460236 4.491403 -23.662350 0.883086 3.094837 -31.844207 -0.000001 -0.000001 -0.000000 2.486438 8.732147 -25.419676 1.496292 3.911574 -41.853982 0.000001 -0.000002 -0.000003 3.090059 8.505064 -34.940348 1.098183 3.416404 -35.630266 0.000000 0.000003 -0.000001 3.603267 12.761709 -45.581305 0.673749 2.729590 -27.725816 -0.000000 -0.000001 0.000001 0.000001 -0.000000 0.000001 2.087501 14.855923 10.815232 -4.515514 3.403572 66.314580 0.000002 7.533710 0.000011 10.827177 0.054052 8.057259 -13.495586 -11.552027 -5.371131 13.666568 -20.582676 -6.820331 -0.000001 -0.000001 0.000002 0.246061 -3.262791 18.902304 0.589422 -2.269644 29.112664 -0.000002 0.000000 0.000002 -0.702545 -1.215802 21.259821 0.924237 -2.786663 36.691851 -0.000001 0.000002 0.000003 -0.941534 -2.664808 38.529264 0.358956 -1.794608 22.620036 -0.000001 0.000000 0.000003 -2.260388 -1.124655 39.408149 0.612403 -2.310397 29.687608 -0.000000 -0.000001 -0.000001 0.000002 0.000000 0.000000 0.000000 0.000000 0.000000 0.000000 0.000000 0.000000 0.000000 0.000000 -0.000000 0.000000 0.000000 -0.000000 0.000000 0.000000 0.000000 0.000000 0.000000 0.000000 0.000000 0.000000 -0.000000 0.000000 0.000000 -0.000000 0.000000 0.000000 0.000000 0.000000 0.000000 0.000000 -0.000000 0.000001 -0.000000 -0.000000 0.000001 -0.000000 -0.000000 0.000001 -0.000000 
-0.078774 70.424911 1.367037 3.843631 -3.714672 -0.153642 -0.000000 0.000000 -0.000000 -8.485474 12.625568 9.399325 11.078980 4.875075 2.170135 -5.760778 0.859450 -9.526950 0.000000 0.000002 0.000000 -0.000001 -0.000001 -0.000001 -7.635305 -8.940943 -7.938018 6.314408 1.551223 -2.866366 -2.572241 -0.656755 10.144062 0.000000 0.000001 -0.000000 -0.000000 0.000001 -0.000000 0.165399 0.321393 -0.024869 0.505080 0.566905 -0.154963 0.501756 0.568184 -0.161176 -12.559658 -1.439831 2.633205 10.173913 3.192751 -2.586304 0.000000 0.000000 -0.000000 0.000000 0.000000 -0.000000 0.000000 0.000000 0.000000 0.000000 0.000000 0.000000 -0.000000 -0.000000 -0.000000 0.000000 0.000000 0.000000 -0.000000 -0.000000 -0.000000 0.000000 0.000000 -0.000000 0.000000 0.000000 -0.000000 1.605353 -11.390789 -9.540915 4.322230 -15.640028 -64.447042 -0.000002 -12.875872 0.000003 1.691684 -1.941293 -8.448837 0.699765 -6.020124 19.223950 19.077328 26.500246 -1.019652 0.000001 0.000001 -0.000001 0.447314 4.462033 -23.666440 0.884198 3.096627 -31.864827 -0.000000 0.000000 -0.000002 2.470858 8.707701 -25.373816 1.495015 3.910150 -41.835318 0.000000 0.000002 0.000001 3.098683 8.517236 -34.940365 1.097790 3.415861 -35.623931 -0.000002 0.000002 -0.000001 3.623487 12.781694 -45.666341 0.681106 2.743532 -27.879859 -0.000000 0.000000 0.000001 0.000003 0.000001 0.000000 2.085333 14.869663 10.812405 -4.531848 3.366102 66.343253 -0.000002 7.501573 0.000013 10.860322 0.047209 8.091117 -13.495585 -11.552028 -5.371131 13.664770 -20.569702 -6.824402 -0.000003 0.000000 -0.000000 0.245271 -3.257202 18.882261 0.573868 -2.241517 28.717390 -0.000006 0.000003 0.000002 -0.718986 -1.174147 21.267203 0.927611 -2.791157 36.761072 -0.000001 0.000003 0.000003 -0.953244 -2.652850 38.560133 0.358681 -1.793949 22.611399 0.000002 -0.000000 -0.000004 -2.262107 -1.135681 39.433943 0.610535 -2.307128 29.641252 0.000001 0.000001 0.000002 -0.000000 0.000001 -0.000001 0.000000 -0.000000 0.000000 0.000000 -0.000000 0.000000 0.000000 -0.000000 -0.000000 0.000000 -0.000000 -0.000000 0.000000 -0.000000 0.000000 0.000000 -0.000000 0.000000 0.000000 -0.000000 -0.000000 0.000000 -0.000000 -0.000000 0.000000 -0.000000 0.000000 0.000000 -0.000000 0.000000 -0.000000 0.000000 -0.000000 -0.000000 0.000000 -0.000000 -0.000000 0.000000 -0.000000 
-0.079214 70.424385 1.371844 3.849265 -3.734855 -0.154159 0.000000 0.000000 -0.000000 -8.485156 12.624243 9.399222 11.084276 4.898842 2.173375 -5.768584 0.860886 -9.532916 0.000000 -0.000000 0.000000 -0.000001 -0.000001 -0.000000 -7.631086 -8.943764 -7.937068 6.294967 1.566069 -2.862716 -2.564242 -0.656290 10.147851 0.000000 0.000000 -0.000000 -0.000000 -0.000001 -0.000001 0.164729 0.327343 -0.030255 0.504567 0.577355 -0.165761 0.501182 0.578510 -0.172097 -12.539000 -1.438112 2.637957 10.172803 3.209202 -2.599770 -0.000000 -0.000000 -0.000000 -0.000000 -0.000000 -0.000000 -0.000000 -0.000000 -0.000000 -0.000000 -0.000000 -0.000000 -0.000000 -0.000000 0.000000 -0.000000 -0.000000 -0.000000 -0.000000 -0.000000 0.000000 -0.000000 -0.000000 -0.000000 -0.000000 -0.000000 -0.000000 1.607033 -11.371500 -9.537777 4.322761 -15.619567 -64.462164 -0.000006 -12.877420 -0.000010 1.686899 -1.923143 -8.458507 0.699761 -6.020124 19.223952 19.214907 26.659531 -1.147226 -0.000001 -0.000000 -0.000001 0.444637 4.456075 -23.677752 0.885364 3.098514 -31.886520 0.000000 -0.000002 0.000003 2.460415 8.690588 -25.347274 1.495399 3.910568 -41.840776 0.000001 0.000001 0.000003 3.097028 8.513983 -34.949573 1.095893 3.413212 -35.591945 -0.000001 0.000003 -0.000000 3.627211 12.778552 -45.693662 0.683771 2.748554 -27.935503 0.000003 -0.000003 0.000002 -0.000002 -0.000000 0.000001 2.082564 14.885620 10.812280 -4.578836 3.305794 66.379747 0.000001 7.451683 -0.000006 10.928838 0.063594 8.088902 -13.495586 -11.552030 -5.371132 13.664439 -20.567484 -6.825291 -0.000001 -0.000001 0.000001 0.246828 -3.268702 18.915606 0.570412 -2.235194 28.628830 -0.000000 0.000001 0.000000 -0.716685 -1.180272 21.268278 0.927293 -2.790743 36.754628 0.000001 -0.000002 -0.000004 -0.952966 -2.652529 38.552757 0.358499 -1.793493 22.605122 -0.000002 -0.000003 -0.000002 -2.250841 -1.155743 39.437174 0.610092 -2.306350 29.630276 0.000001 0.000001 0.000001 0.000001 -0.000000 0.000000 -0.000000 -0.000000 0.000000 0.000000 -0.000000 -0.000000 -0.000000 -0.000000 0.000000 -0.000000 -0.000000 0.000000 -0.000000 -0.000000 0.000000 0.000000 -0.000000 -0.000000 -0.000000 -0.000000 0.000000 -0.000000 -0.000000 0.000000 -0.000000 -0.000000 0.000000 0.000000 -0.000000 -0.000000 0.000000 0.000000 -0.000000 0.000000 0.000000 -0.000000 0.000000 0.000000 -0.000000 
-0.077914 70.425812 1.383012 3.833771 -3.761854 -0.149913 -0.000000 0.000000 0.000000 -8.431946 12.630796 9.384833 11.050358 4.914375 2.178862 -5.768927 0.862004 -9.538884 -0.000000 -0.000000 -0.000000 -0.000000 -0.000000 -0.000000 -7.562854 -8.965679 -7.937802 6.189930 1.622458 -2.855633 -2.520285 -0.652820 10.166206 -0.000000 -0.000000 0.000000 -0.000000 0.000000 -0.000000 0.168026 0.334588 -0.035180 0.510799 0.590014 -0.178488 0.507345 0.591058 -0.184966 -12.515697 -1.439383 2.638153 10.198096 3.201768 -2.609967 0.000000 0.000000 0.000000 0.000000 0.000000 0.000000 0.000000 0.000000 0.000000 0.000000 0.000000 0.000000 -0.000000 0.000000 0.000000 0.000000 0.000000 0.000000 -0.000000 0.000000 0.000000 0.000000 0.000000 0.000000 0.000000 0.000000 0.000000 1.608172 -11.349918 -9.546587 4.325898 -15.592412 -64.472703 0.000002 -12.872907 0.000019 1.694200 -1.900628 -8.483011 0.699766 -6.020123 19.223950 19.459952 27.008622 -1.416678 0.000001 0.000001 -0.000002 0.446386 4.460201 -23.690895 0.885635 3.098942 -31.891489 -0.000002 0.000000 -0.000002 2.453538 8.676186 -25.348282 1.495987 3.911234 -41.849320 0.000002 0.000001 0.000003 3.091583 8.505857 -34.953660 1.094061 3.410671 -35.561243 0.000001 -0.000001 -0.000003 3.625827 12.767911 -45.703784 0.682617 2.746387 -27.911612 -0.000002 0.000003 0.000001 -0.000002 -0.000000 0.000001 2.082620 14.887309 10.807807 -4.581127 3.287874 66.399076 -0.000003 7.433773 0.000010 10.942119 0.069744 8.089880 -13.495583 -11.552029 -5.371132 13.659747 -20.532240 -6.835826 0.000001 -0.000000 0.000003 0.247288 -3.272741 18.915147 0.570442 -2.235255 28.629583 -0.000004 -0.000001 0.000002 -0.713330 -1.188066 21.261957 0.926007 -2.789013 36.728103 0.000003 0.000000 -0.000004 -0.953744 -2.650382 38.540111 0.358203 -1.792796 22.595966 -0.000000 0.000000 -0.000003 -2.251018 -1.147744 39.419634 0.610983 -2.307906 29.652382 -0.000001 -0.000001 0.000000 0.000001 -0.000000 0.000000 0.000000 0.000000 0.000000 0.000000 -0.000000 -0.000000 0.000000 0.000000 -0.000000 0.000000 0.000000 -0.000000 0.000000 0.000000 0.000000 0.000000 -0.000000 -0.000000 0.000000 0.000000 -0.000000 0.000000 0.000000 -0.000000 0.000000 0.000000 0.000000 0.000000 -0.000000 -0.000000 -0.000000 0.000000 0.000000 -0.000000 0.000000 0.000000 -0.000000 0.000000 0.000000 
-0.076089 70.425430 1.397229 3.808172 -3.784767 -0.144153 0.000000 0.000000 -0.000000 -8.392730 12.637831 9.374988 11.065223 4.943624 2.181956 -5.791479 0.864074 -9.539294 -0.000000 0.000002 0.000000 -0.000000 0.000000 0.000001 -7.595718 -8.973583 -7.964214 6.314347 1.656104 -2.845992 -2.591425 -0.658935 10.139178 -0.000000 0.000000 -0.000000 -0.000000 -0.000001 -0.000001 0.173660 0.340757 -0.040150 0.521293 0.600968 -0.187973 0.517780 0.601961 -0.194582 -12.495022 -1.441195 2.629517 10.226479 3.175037 -2.619247 -0.000000 -0.000000 -0.000000 -0.000000 -0.000000 -0.000000 -0.000000 -0.000000 0.000000 -0.000000 -0.000000 -0.000000 -0.000000 -0.000000 -0.000000 -0.000000 -0.000000 -0.000000 -0.000000 -0.000000 -0.000000 -0.000000 -0.000000 -0.000000 -0.000000 -0.000000 -0.000000 1.607157 -11.347636 -9.566680 4.332314 -15.558121 -64.475367 -0.000004 -12.855806 -0.000000 1.707857 -1.879523 -8.517438 0.699761 -6.020123 19.223952 19.694169 27.396259 -1.710382 0.000004 -0.000000 -0.000001 0.446343 4.460386 -23.711067 0.884932 3.097807 -31.878272 -0.000004 -0.000000 -0.000004 2.449855 8.664971 -25.369595 1.496002 3.911240 -41.849594 0.000001 0.000002 0.000004 3.087202 8.498547 -34.964671 1.093844 3.410372 -35.557736 -0.000005 0.000003 0.000005 3.629267 12.763885 -45.731023 0.679843 2.741148 -27.853453 0.000001 -0.000001 0.000003 -0.000000 -0.000000 0.000000 2.085933 14.873044 10.797302 -4.551193 3.309365 66.400039 -0.000000 7.449254 -0.000008 10.904137 0.061898 8.096052 -13.495583 -11.552031 -5.371132 13.654283 -20.491201 -6.848074 -0.000002 0.000000 0.000001 0.246150 -3.265801 18.871941 0.565664 -2.226477 28.506884 0.000001 -0.000001 0.000002 -0.715285 -1.180814 21.247030 0.925358 -2.788150 36.714835 0.000000 0.000001 -0.000001 -0.959361 -2.642536 38.531826 0.357637 -1.791446 22.577976 0.000001 0.000000 -0.000003 -2.256265 -1.128928 39.394188 0.612249 -2.310130 29.683760 0.000001 0.000001 0.000004 0.000002 0.000001 -0.000000 0.000000 0.000000 0.000000 0.000000 0.000000 0.000000 0.000000 0.000000 -0.000000 0.000000 0.000000 -0.000000 0.000000 0.000000 0.000000 0.000000 0.000000 0.000000 0.000000 0.000000 -0.000000 0.000000 0.000000 -0.000000 0.000000 0.000000 0.000000 0.000000 0.000000 0.000000 0.000000 0.000000 -0.000000 0.000000 0.000000 -0.000000 0.000000 0.000000 -0.000000 
